<?xml version="1.0" encoding="utf-8"?>
<!-- Generator: Adobe Illustrator 22.0.1, SVG Export Plug-In . SVG Version: 6.00 Build 0)  -->
<svg version="1.1" id="Layer_1" xmlns="http://www.w3.org/2000/svg" xmlns:xlink="http://www.w3.org/1999/xlink" x="0px" y="0px"
	 viewBox="0 0 108.3 125" style="enable-background:new 0 0 108.3 125;" xml:space="preserve">
<style type="text/css">
	.st0{fill:#F8F8F8;}
	.st1{fill:#A0611D;}
	.st2{opacity:0.15;}
</style>
<title>kitty</title>
<g>
	<polygon class="st0" points="0,31.2 54.2,0 108.3,31.2 108.3,93 54.2,125 0,93 	"/>
</g>
<g id="Mask-2">
	<path id="path-2-2" class="st1" d="M7,36L53.8,9l46.8,27v53.3L53.8,117L7,89.3V36z"/>
</g>
<g>
	<g id="Path-295" class="st2">
		<path d="M101.8,36L54,65.3l47.3,24.2L101.8,36z"/>
		<path d="M6,36l47.8,29.3L6.6,89.6L6,36z"/>
	</g>
</g>
<g>
	<path d="M37.6,62.7c0,3.8,0.6,7.3,1.7,10.3c1.1,3,2.7,5.6,4.7,7.7c2,2.1,4.4,3.7,7.1,4.8c2.7,1.1,5.7,1.7,8.9,1.7
		c1.9,0,3.7-0.4,5.5-1.1c1.8-0.7,3.4-1.7,4.9-2.9c1.5-1.2,2.9-2.5,4.1-4c1.2-1.5,2.2-3,3-4.6l3.8,2.5c-1.1,1.8-2.4,3.6-4,5.3
		c-1.5,1.7-3.3,3.2-5.3,4.5c-2,1.3-4.3,2.3-6.8,3.1C62.8,90.6,60,91,56.9,91c-3,0-5.8-0.3-8.5-1s-5.1-1.7-7.3-2.9
		c-2.2-1.2-4.2-2.7-6-4.5c-1.8-1.7-3.2-3.7-4.5-5.8c-1.2-2.1-2.1-4.3-2.8-6.7c-0.7-2.4-1-4.9-1-7.4c0-2.6,0.3-5,1-7.4
		c0.7-2.4,1.6-4.7,2.9-6.8c1.2-2.1,2.8-4.1,4.6-5.8c1.8-1.8,3.8-3.3,6.1-4.6c2.3-1.3,4.7-2.2,7.4-2.9c2.7-0.7,5.5-1.1,8.6-1.1
		c2.9,0,5.6,0.4,8,1.2C67.8,36,70,37,72,38.3c2,1.3,3.8,2.8,5.4,4.5c1.6,1.7,2.9,3.5,4,5.3l-3.9,2.7c-2.3-4.4-4.8-7.6-7.7-9.7
		c-2.8-2.1-6-3.1-9.7-3.1c-3.2,0-6.1,0.6-8.8,1.7c-2.7,1.1-5.1,2.8-7.1,4.9c-2,2.1-3.6,4.7-4.8,7.8S37.6,58.8,37.6,62.7z"/>
</g>
</svg>
