<?xml version="1.0" encoding="utf-8"?>
<!-- Generator: Adobe Illustrator 22.0.1, SVG Export Plug-In . SVG Version: 6.00 Build 0)  -->
<svg version="1.1" id="Layer_1" xmlns="http://www.w3.org/2000/svg" xmlns:xlink="http://www.w3.org/1999/xlink" x="0px" y="0px"
	 viewBox="0 0 108.3 125" style="enable-background:new 0 0 108.3 125;" xml:space="preserve">
<style type="text/css">
	.st0{fill:#F8F8F8;}
	.st1{fill:#0B7AB2;}
	.st2{opacity:0.15;}
</style>
<title>kitty</title>
<g>
	<polygon class="st0" points="0,31.2 54.2,0 108.3,31.2 108.3,93 54.2,125 0,93 	"/>
</g>
<g id="Mask-2">
	<path id="path-2-2" class="st1" d="M7,36L53.8,9l46.8,27v53.3L53.8,117L7,89.3V36z"/>
</g>
<g>
	<g id="Path-295" class="st2">
		<path d="M101.8,36L54,65.3l47.3,24.2L101.8,36z"/>
		<path d="M6,36l47.8,29.3L6.6,89.6L6,36z"/>
	</g>
</g>
<g>
	<path d="M31.6,35.3h18.8c3.3,0,6.2,0.4,8.6,1.1s4.5,1.7,6.2,2.9c1.6,1.3,2.9,2.8,3.7,4.5c0.8,1.7,1.2,3.6,1.2,5.7
		c0,1.7-0.3,3.3-1,4.7c-0.6,1.5-1.5,2.8-2.7,4c-1.2,1.2-2.6,2.2-4.2,3.1c-1.6,0.9-3.5,1.5-5.4,2l19.8,26.4H66.1L47.2,64.1h-6.4v25.6
		h-9.1V35.3z M40.8,61.4H46c2.1,0,4-0.3,5.7-0.8c1.7-0.5,3.2-1.3,4.5-2.3c1.3-1,2.3-2.2,3-3.7c0.7-1.4,1.1-3,1.1-4.8
		c0-1.6-0.3-3.1-0.9-4.5c-0.6-1.4-1.4-2.5-2.4-3.5s-2.2-1.7-3.6-2.3s-2.9-0.8-4.6-0.8h-8V61.4z"/>
</g>
</svg>
